<?xml version="1.0" encoding="UTF-8" standalone="no"?><!DOCTYPE svg PUBLIC "-//W3C//DTD SVG 1.1//EN" "http://www.w3.org/Graphics/SVG/1.1/DTD/svg11.dtd"><svg width="100%" height="100%" viewBox="0 0 48 48" version="1.1" xmlns="http://www.w3.org/2000/svg" xmlns:xlink="http://www.w3.org/1999/xlink" xml:space="preserve" xmlns:serif="http://www.serif.com/" style="fill-rule:evenodd;clip-rule:evenodd;"><g><path d="M24,24Z" style="fill:url(#_Linear1);"/><path d="M24,24Z" style="fill:url(#_Linear2);"/><g><circle cx="24" cy="24" r="21.282" style="fill:#5d5d5d;stroke:url(#_Linear3);stroke-width:1.52px;"/><path d="M30.991,12.953l-9.883,2.675c-0.742,0.208 -1.34,1.037 -1.34,1.842l0,12.757c-0.753,-0.412 -1.719,-0.579 -2.722,-0.307c-1.808,0.492 -2.942,2.084 -2.554,3.553c0.107,0.408 0.323,0.765 0.617,1.059l10.664,10.664c9.841,-0.835 17.87,-8.415 19.269,-18.192l-14.051,-14.051Z" style="fill-opacity:0.0745098;fill-rule:nonzero;"/><path d="M21.038,15.599c-0.743,0.209 -1.34,1.037 -1.34,1.842l0,12.759c-0.753,-0.413 -1.72,-0.58 -2.722,-0.307c-1.808,0.492 -2.942,2.082 -2.554,3.551c0.388,1.469 2.169,2.29 3.978,1.798c1.443,-0.393 2.437,-1.503 2.596,-2.675l0.042,-12.057l9.38,-2.631l0,9.515c-0.753,-0.413 -1.72,-0.58 -2.722,-0.307c-1.809,0.492 -2.942,2.082 -2.554,3.551c0.388,1.469 2.169,2.29 3.978,1.798c1.443,-0.393 2.437,-1.503 2.596,-2.675l0.042,-15.696c0,-0.604 -0.356,-1.055 -0.837,-1.14l-9.882,2.674l-0.001,0Z" style="fill:url(#_Linear4);fill-rule:nonzero;"/><circle cx="24" cy="24" r="21.98" style="fill:none;stroke:url(#_Linear5);stroke-width:2.04px;"/></g></g><defs><linearGradient id="_Linear1" x1="0" y1="0" x2="1" y2="0" gradientUnits="userSpaceOnUse" gradientTransform="matrix(2.60625e-15,-42.5633,42.5633,2.60625e-15,23.7339,45.0103)"><stop offset="0" style="stop-color:#d3d3d3;stop-opacity:1"/><stop offset="1" style="stop-color:#fcf9f9;stop-opacity:1"/></linearGradient><linearGradient id="_Linear2" x1="0" y1="0" x2="1" y2="0" gradientUnits="userSpaceOnUse" gradientTransform="matrix(2.60625e-15,-42.5633,42.5633,2.60625e-15,23.7339,45.0103)"><stop offset="0" style="stop-color:#d3d3d3;stop-opacity:1"/><stop offset="1" style="stop-color:#fcf9f9;stop-opacity:1"/></linearGradient><linearGradient id="_Linear3" x1="0" y1="0" x2="1" y2="0" gradientUnits="userSpaceOnUse" gradientTransform="matrix(4.18862e-15,68.4053,-68.4053,4.18862e-15,38.7957,-21.5164)"><stop offset="0" style="stop-color:#8a8a8a;stop-opacity:1"/><stop offset="1" style="stop-color:#4d4d4d;stop-opacity:1"/></linearGradient><linearGradient id="_Linear4" x1="0" y1="0" x2="1" y2="0" gradientUnits="userSpaceOnUse" gradientTransform="matrix(1.48793,-23.0399,23.0399,1.48793,22.3082,35.3361)"><stop offset="0" style="stop-color:#d3d3d3;stop-opacity:0.9"/><stop offset="1" style="stop-color:#fcf9f9;stop-opacity:0.9"/></linearGradient><linearGradient id="_Linear5" x1="0" y1="0" x2="1" y2="0" gradientUnits="userSpaceOnUse" gradientTransform="matrix(2.69172e-15,-43.9592,43.9592,2.69172e-15,23.7252,45.6995)"><stop offset="0" style="stop-color:#d3d3d3;stop-opacity:1"/><stop offset="1" style="stop-color:#fcf9f9;stop-opacity:1"/></linearGradient></defs></svg>